# xmcd CD database file
# Copyright (C) 1993-1998 Ti Kan
#
# Track frame offsets:
# 153
# 19548
# 40660
# 55060
# 66240
# 79570
# 95475
# 111765
# 123703
# 138910
# 154933
# 166820
#
# Disc length: 2498 seconds
#
# Revision: 0
# Processed by: cddbd v1.4b41PL1 Copyright (c) Steve Scherf et al.
# Submitted via: inCDius 1.1
#
DISCID=9309c00c
DTITLE=Kris Kristofferson - 36 All-Time Great Hits: Disk 1-Silver Tongued Devi
DTITLE=l
DYEAR=1900
DGENRE=
TTITLE0=The Silver Tongued Devil and I
TTITLE1=To Beat the Devil
TTITLE2=The Pilgrim - Chapter 33
TTITLE3=Jesus Was a Capricorn (Owed to John Prine)
TTITLE4=Billie Dee
TTITLE5=If You Don't Like Hank Williams
TTITLE6=Just the Other Side of Nowhere
TTITLE7=The Law is for the Protection of the People
TTITLE8=Burden of Freedom
TTITLE9=Who's to Bless and Who's to Blame
TTITLE10=Jesse Younger
TTITLE11=Living Legend
EXTD=
EXTT0=\t\t
EXTT1=
EXTT2=
EXTT3=
EXTT4=
EXTT5=
EXTT6=\t
EXTT7=
EXTT8=
EXTT9=
EXTT10=
EXTT11=
PLAYORDER=
